<?xml version="1.0" standalone="no"?>
<!DOCTYPE svg PUBLIC "-//W3C//DTD SVG 20010904//EN"
 "http://www.w3.org/TR/2001/REC-SVG-20010904/DTD/svg10.dtd">
<svg version="1.0" xmlns="http://www.w3.org/2000/svg"
 width="558.000000pt" height="558.000000pt" viewBox="0 0 558.000000 558.000000"
 preserveAspectRatio="xMidYMid meet">

<g transform="translate(0.000000,558.000000) scale(0.100000,-0.100000)"
fill="#000000" stroke="none">
<path d="M3809 3468 c-22 -18 -79 -94 -79 -105 0 -5 -41 -92 -90 -192 -50
-100 -87 -187 -84 -193 5 -7 2 -8 -6 -3 -10 6 -12 4 -7 -8 3 -10 3 -17 -2 -17
-10 0 -120 -257 -149 -350 -58 -180 -73 -281 -49 -314 25 -34 49 -15 74 54 54
149 225 443 298 510 l27 25 -8 -70 c-13 -104 -10 -186 9 -221 19 -37 66 -59
103 -50 36 9 94 69 94 96 0 21 2 21 35 -9 45 -39 76 -47 138 -32 75 17 152 66
244 154 l82 79 -30 -83 c-17 -46 -35 -89 -40 -96 -6 -6 -42 -30 -82 -54 -40
-23 -74 -44 -76 -46 -3 -2 2 -11 11 -20 14 -13 23 -14 63 -4 26 7 49 10 52 8
2 -3 -8 -55 -22 -118 -38 -168 -41 -211 -20 -265 14 -38 25 -50 61 -65 39 -18
47 -18 76 -6 48 20 81 58 119 135 45 94 51 179 16 255 -24 54 -70 98 -114 112
-49 14 -16 48 104 109 94 46 156 70 215 81 l37 7 -22 -58 c-22 -56 -28 -62
-105 -109 -44 -27 -81 -53 -82 -57 -1 -20 41 -28 80 -17 22 7 43 9 46 6 4 -3
-5 -59 -19 -124 -38 -174 -40 -186 -27 -234 15 -55 44 -87 87 -95 73 -14 145
50 191 171 29 76 33 115 19 172 -19 74 -54 120 -109 146 -26 12 -47 26 -48 30
-1 34 200 138 335 172 95 24 96 24 115 5 24 -24 39 -25 47 -3 11 27 -32 53
-89 53 -30 0 -47 -4 -43 -10 4 -6 -7 -8 -27 -4 -26 5 -30 3 -18 -6 12 -9 10
-10 -13 -6 -19 5 -59 -7 -138 -39 -62 -25 -114 -43 -117 -41 -12 12 8 34 27
29 29 -7 38 22 16 47 -18 19 -15 27 87 233 58 116 126 248 151 292 47 82 48
105 7 105 -26 0 -65 -67 -210 -357 l-125 -251 -38 -7 c-20 -4 -34 -11 -31 -16
3 -6 -5 -7 -22 -3 -19 5 -25 4 -20 -4 4 -7 2 -10 -7 -6 -8 3 -60 -14 -116 -36
-57 -23 -105 -39 -108 -36 -11 11 42 135 147 346 59 118 124 242 143 275 33
54 34 61 20 73 -39 29 -51 13 -189 -253 -106 -205 -157 -274 -277 -373 -117
-97 -256 -163 -307 -147 -27 8 -25 22 3 31 39 12 133 82 175 130 83 94 58 172
-64 198 -28 6 -36 2 -75 -42 -59 -65 -111 -169 -117 -233 -4 -43 -11 -58 -46
-94 -45 -48 -92 -67 -107 -44 -6 8 -7 74 -3 155 6 139 6 141 -17 163 -26 24
-60 22 -91 -6 -22 -20 -145 -201 -184 -270 -16 -29 -32 -53 -36 -53 -8 0 47
158 111 318 59 146 162 349 232 455 62 95 66 106 47 125 -15 15 -21 15 -39 0z
m-168 -365 c-12 -20 -14 -14 -5 12 4 9 9 14 11 11 3 -2 0 -13 -6 -23z m554
-163 c15 -25 -20 -82 -90 -148 -40 -39 -83 -75 -94 -82 -19 -10 -20 -9 -11 14
19 50 49 102 94 164 35 47 52 62 70 62 14 0 28 -5 31 -10z m-648 -75 c-8 -16
-17 -23 -21 -17 -9 15 4 43 17 35 7 -4 8 0 3 13 -5 14 -4 16 4 8 9 -9 8 -19
-3 -39z m-17 -47 c0 -6 -8 -4 -17 3 -15 12 -16 12 -10 -4 4 -12 3 -16 -4 -11
-8 4 -9 -1 -4 -16 5 -17 4 -21 -6 -15 -9 6 -11 3 -6 -9 4 -11 3 -15 -4 -10 -8
4 -9 -1 -4 -16 5 -15 4 -20 -4 -16 -6 4 -9 2 -6 -7 3 -7 1 -24 -4 -38 -5 -13
-10 -18 -10 -11 -1 7 -5 10 -11 7 -15 -9 -13 -1 16 68 15 34 30 73 35 86 8 19
12 21 24 11 8 -7 15 -17 15 -22z m1286 -124 c-4 -9 -9 -15 -11 -12 -3 3 -3 13
1 22 4 9 9 15 11 12 3 -3 3 -13 -1 -22z m-395 -11 c-12 -20 -14 -14 -5 12 4 9
9 14 11 11 3 -2 0 -13 -6 -23z m-973 -43 c3 -8 0 -10 -8 -5 -9 5 -10 2 -5 -15
5 -15 4 -20 -4 -16 -7 4 -9 1 -5 -8 3 -8 -4 -25 -15 -37 -25 -27 -26 -21 -4
48 16 51 31 63 41 33z m1439 -112 c76 -71 44 -253 -63 -365 -50 -53 -71 -55
-80 -8 -7 41 -1 93 27 230 39 184 37 178 67 170 15 -3 37 -16 49 -27z m-422 8
c49 -21 70 -66 69 -151 0 -59 -6 -80 -32 -133 -39 -74 -97 -142 -123 -142 -25
0 -33 37 -26 114 8 87 62 326 73 326 2 0 20 -6 39 -14z m-1070 -28 c-4 -13
-12 -27 -18 -33 -7 -7 -8 -4 -3 8 3 10 6 25 6 33 0 8 5 14 11 14 6 0 8 -9 4
-22z m970 -28 c-4 -17 -9 -29 -12 -26 -3 2 -2 19 2 36 4 17 9 29 12 26 3 -2 2
-19 -2 -36z m392 18 c-3 -8 -6 -5 -6 6 -1 11 2 17 5 13 3 -3 4 -12 1 -19z
m-1397 -114 c-17 -61 -23 -49 -9 17 7 30 14 48 17 41 2 -8 -1 -34 -8 -58z
m987 34 c-3 -8 -6 -5 -6 6 -1 11 2 17 5 13 3 -3 4 -12 1 -19z m390 0 c-3 -8
-6 -5 -6 6 -1 11 2 17 5 13 3 -3 4 -12 1 -19z m-403 -62 c-3 -21 -8 -35 -11
-32 -2 2 -1 20 3 40 3 21 8 35 11 32 2 -2 1 -20 -3 -40z m390 0 c-3 -21 -8
-35 -11 -32 -2 2 -1 20 3 40 3 21 8 35 11 32 2 -2 1 -20 -3 -40z"/>
<path d="M1094 3431 c-43 -26 -139 -142 -234 -282 -116 -171 -270 -475 -253
-502 3 -6 1 -7 -5 -3 -11 7 -14 3 -16 -26 -1 -7 -7 -19 -14 -27 -7 -7 -11 -20
-8 -28 4 -9 2 -11 -6 -7 -8 5 -9 2 -5 -9 7 -19 -11 -79 -23 -72 -4 3 -20 -35
-35 -83 -29 -93 -50 -131 -39 -72 47 281 217 728 358 945 50 77 54 90 30 99
-68 26 -115 -41 -251 -359 -105 -244 -185 -503 -199 -642 -4 -34 -10 -60 -15
-58 -4 3 -6 -15 -5 -40 2 -31 9 -50 22 -60 53 -39 108 -25 118 30 15 76 114
370 151 448 15 31 5 22 -22 -20 -14 -21 29 81 58 138 11 22 17 45 13 51 -5 7
-3 8 6 3 10 -6 12 -4 6 11 -5 14 -4 16 4 8 9 -9 4 -27 -20 -74 -17 -34 -29
-64 -26 -68 3 -3 20 25 36 61 26 55 29 69 20 88 -7 12 -8 19 -2 15 8 -5 29 32
23 42 0 1 8 11 19 22 12 12 18 25 15 30 -4 6 -2 10 3 10 11 0 40 41 44 62 2 7
8 17 14 23 6 5 32 42 59 80 60 86 156 206 181 225 11 8 5 -1 -12 -20 -84 -95
-251 -334 -299 -431 -43 -84 -27 -66 41 47 98 162 287 414 300 401 5 -4 -23
-149 -38 -199 -6 -21 -15 -38 -19 -38 -5 0 -6 -7 -3 -15 4 -8 1 -15 -6 -15 -7
0 -9 -8 -5 -20 3 -11 2 -20 -3 -20 -6 0 -8 -10 -4 -22 4 -15 2 -19 -7 -13 -10
5 -11 2 -6 -14 4 -13 2 -21 -5 -21 -7 0 -9 -8 -5 -21 5 -16 4 -19 -5 -14 -10
6 -11 1 -6 -19 5 -20 3 -26 -5 -21 -7 5 -9 1 -5 -12 4 -11 0 -50 -8 -86 -7
-37 -10 -67 -5 -67 5 0 9 7 9 15 0 8 5 15 10 15 13 0 13 -3 -4 -35 -8 -16 -16
-21 -18 -14 -3 8 -10 -21 -17 -63 -15 -82 -10 -125 7 -68 6 21 11 27 11 15 1
-11 -4 -38 -11 -60 -10 -37 -12 -38 -18 -15 -7 27 -7 25 -26 -101 -4 -29 -9
-37 -15 -28 -7 11 -9 9 -9 -7 0 -27 18 -42 57 -50 28 -6 31 -3 41 33 31 113
146 366 202 448 25 37 30 49 20 58 -7 7 -10 7 -7 2 3 -6 -8 -31 -24 -55 -17
-25 -51 -83 -77 -129 -25 -47 -47 -80 -49 -75 -6 19 74 179 115 227 36 44 53
58 51 41 0 -4 5 -10 12 -14 9 -6 10 -33 3 -115 -5 -59 -6 -109 -1 -112 5 -3 7
-35 5 -71 -3 -61 -1 -66 24 -85 37 -28 112 -38 139 -19 11 7 58 64 103 126 46
61 103 128 128 148 l45 37 -34 -84 c-42 -108 -43 -156 -4 -196 36 -36 53 -36
119 -3 64 32 229 204 195 204 -4 0 -51 -34 -103 -76 -104 -83 -164 -118 -186
-110 -20 8 -18 23 22 143 19 59 36 120 36 134 1 31 -71 109 -102 109 -34 0
-100 -69 -175 -185 -40 -61 -75 -120 -79 -133 -4 -12 -12 -20 -17 -16 -6 3 -7
-5 -4 -23 5 -19 4 -24 -3 -15 -7 11 -10 9 -15 -7 -9 -37 -25 -23 -29 26 -2 27
0 77 4 113 10 96 9 209 -2 231 -6 10 -17 19 -25 19 -8 0 -15 5 -15 11 0 6 -12
9 -27 7 -36 -4 -104 -89 -167 -207 -26 -50 -50 -91 -53 -91 -3 0 -2 8 2 18 4
9 20 74 35 144 16 70 45 189 66 265 44 164 63 250 64 281 0 23 -43 72 -64 72
-6 0 -25 -9 -42 -19z m-494 -556 c0 -8 -4 -15 -10 -15 -5 0 -7 7 -4 15 4 8 8
15 10 15 2 0 4 -7 4 -15z m1039 -17 c-12 -24 -189 -238 -196 -238 -3 0 6 18
18 40 61 109 230 297 178 198z m-618 -9 c-5 -13 -10 -19 -10 -12 -1 15 10 45
15 40 3 -2 0 -15 -5 -28z m-448 -45 c-10 -16 -17 -29 -15 -31 7 -8 1 -43 -8
-43 -20 0 0 87 26 113 17 17 15 -13 -3 -39z m-30 -2 c-3 -12 -9 -22 -14 -22
-12 0 -11 7 2 32 13 25 20 19 12 -10z m-15 -59 c-2 -18 1 -27 10 -25 6 1 12
-2 12 -8 0 -5 -5 -10 -11 -10 -5 0 -8 -4 -5 -8 3 -5 -4 -38 -15 -73 -18 -58
-31 -104 -60 -211 -7 -27 -14 -36 -24 -32 -11 5 -15 -2 -16 -22 0 -16 -4 -38
-9 -49 -8 -19 -9 -19 -9 1 -2 54 46 264 60 264 7 0 2 -29 -20 -109 -7 -23 -10
-45 -7 -48 3 -3 8 8 11 23 4 16 12 47 20 69 16 49 29 130 15 100 -8 -18 -9
-18 -9 6 -1 23 29 125 44 149 11 18 16 11 13 -17z m495 -33 c-3 -11 -7 -20 -9
-20 -2 0 -4 9 -4 20 0 11 4 20 9 20 5 0 7 -9 4 -20z m-412 -123 c-10 -9 -11
-8 -5 6 3 10 9 15 12 12 3 -3 0 -11 -7 -18z m359 -84 c0 -5 -5 -15 -10 -23 -8
-12 -10 -11 -10 8 0 12 5 22 10 22 6 0 10 -3 10 -7z m-528 -195 c-2 -29 -9
-57 -14 -63 -11 -11 -4 87 7 105 11 18 12 11 7 -42z"/>
<path d="M501 2679 c-6 -18 -11 -37 -10 -43 0 -6 7 7 15 28 8 22 12 41 10 43
-2 2 -9 -10 -15 -28z"/>
<path d="M2252 3351 c-60 -115 -24 -99 -302 -131 -96 -11 -227 -22 -292 -24
-64 -3 -132 -8 -152 -11 -37 -7 -46 -24 -23 -43 14 -12 44 -9 432 42 143 19
261 33 262 32 2 -1 -21 -56 -50 -122 -29 -65 -71 -166 -92 -224 -21 -58 -43
-107 -47 -108 -4 -2 -6 -8 -3 -13 3 -5 -4 -41 -15 -80 -36 -119 -16 -87 30 48
41 125 76 212 145 361 49 104 51 89 3 -20 -46 -105 -128 -326 -127 -342 0 -6
9 13 20 42 12 29 23 51 26 48 3 -3 -1 -22 -10 -43 -8 -21 -32 -99 -52 -173
-39 -140 -52 -174 -41 -105 4 27 3 33 -3 20 -5 -11 -16 -68 -25 -125 -10 -58
-21 -123 -25 -145 -8 -39 -9 -38 -10 20 0 33 3 77 8 98 5 20 5 39 1 42 -21 13
-27 -220 -6 -269 26 -62 107 -101 121 -57 6 19 -3 51 -14 51 -4 0 -13 -6 -19
-12 -25 -25 -33 13 -28 132 9 218 111 553 268 882 60 126 30 114 318 124 202
7 221 2 135 -31 l-40 -15 58 3 c68 4 95 23 78 55 -7 14 -25 23 -54 27 -43 7
-365 -11 -399 -21 -26 -8 -22 5 17 66 39 62 43 87 18 106 -40 30 -56 18 -111
-85z m441 -78 c-7 -2 -19 -2 -25 0 -7 3 -2 5 12 5 14 0 19 -2 13 -5z m-572
-330 c-12 -20 -14 -14 -5 12 4 9 9 14 11 11 3 -2 0 -13 -6 -23z m-31 -79 c-10
-27 -19 -43 -20 -37 0 16 31 95 36 90 2 -2 -5 -25 -16 -53z m-133 -456 c-3 -7
-5 -2 -5 12 0 14 2 19 5 13 2 -7 2 -19 0 -25z m-10 -50 c-3 -7 -5 -2 -5 12 0
14 2 19 5 13 2 -7 2 -19 0 -25z"/>
<path d="M3008 3075 c-91 -33 -181 -122 -276 -270 -76 -118 -189 -225 -238
-225 -14 0 -16 8 -10 55 7 59 55 200 80 237 20 28 21 64 2 71 -17 7 -37 -15
-66 -72 -24 -47 -209 -285 -217 -278 -7 8 16 85 54 179 38 95 40 131 7 136
-17 2 -26 -9 -52 -66 -43 -96 -64 -174 -60 -224 2 -36 8 -45 32 -57 40 -19 65
-3 121 80 25 38 48 69 51 69 2 0 2 -15 -2 -34 -8 -43 11 -101 39 -121 45 -31
94 -13 159 59 l38 41 0 -38 c0 -75 61 -155 133 -175 93 -26 280 48 374 147 31
34 61 61 67 61 5 0 1 -10 -10 -22 l-19 -23 22 19 c13 10 20 22 18 26 -3 4 2
13 10 20 8 7 15 9 15 5 0 -25 112 113 130 159 16 43 -7 39 -39 -6 -109 -157
-373 -334 -514 -345 -75 -6 -123 13 -133 53 -13 52 3 141 39 216 77 160 267
328 350 310 40 -9 4 -114 -75 -214 -28 -35 -32 -38 -69 -32 -44 7 -51 -4 -19
-36 33 -33 72 -26 117 23 48 52 106 167 106 209 0 66 -77 95 -165 63z m333
-332 c-5 -10 -22 -29 -37 -43 -24 -22 -23 -20 6 18 35 44 47 54 31 25z"/>
<path d="M1991 2624 c-7 -25 -10 -48 -8 -51 3 -2 10 17 16 43 7 25 10 48 8 51
-3 2 -10 -17 -16 -43z"/>
<path d="M1941 2564 c0 -11 3 -14 6 -6 3 7 2 16 -1 19 -3 4 -6 -2 -5 -13z"/>
<path d="M1971 2544 c0 -11 3 -14 6 -6 3 7 2 16 -1 19 -3 4 -6 -2 -5 -13z"/>
<path d="M1931 2524 c0 -11 3 -14 6 -6 3 7 2 16 -1 19 -3 4 -6 -2 -5 -13z"/>
<path d="M1916 2464 c-4 -20 -5 -38 -3 -40 3 -3 8 11 11 32 4 20 5 38 3 40 -3
3 -8 -11 -11 -32z"/>
</g>
</svg>
